<svg width="24" height="25" viewBox="0 0 24 25" fill="none" xmlns="http://www.w3.org/2000/svg">
<path d="M18.1094 5.92403C21.4836 9.29816 21.4836 14.7687 18.1094 18.1428C14.7353 21.5169 9.26476 21.5169 5.89064 18.1428C2.51651 14.7687 2.51651 9.29814 5.89064 5.92403C9.26478 2.5499 14.7353 2.5499 18.1094 5.92403" stroke="#0088FF" stroke-width="1.5" stroke-linecap="round" stroke-linejoin="round"/>
<path d="M17.0842 11.0686C17.2627 11.2471 17.2627 11.5361 17.0842 11.7147L16.6848 12.114C16.5763 12.2225 16.4218 12.2686 16.272 12.2388L14.5085 11.8855L13.0541 13.3399L13.4074 15.1035C13.4371 15.2532 13.3901 15.4087 13.2826 15.5163L12.8832 15.9156C12.7046 16.0942 12.4157 16.0942 12.2371 15.9156L8.35775 12.0363C8.17919 11.8577 8.17919 11.5687 8.35775 11.3902L8.75711 10.9908C8.86559 10.8823 9.02015 10.8363 9.16991 10.866L10.9334 11.2193L12.3878 9.7649L12.0346 8.00138C12.0048 7.85162 12.0518 7.6961 12.1594 7.58858L12.5587 7.18922C12.7373 7.01066 13.0262 7.01066 13.2048 7.18922L17.0842 11.0686" stroke="#0088FF" stroke-width="1.5" stroke-linecap="round" stroke-linejoin="round"/>
<path d="M8.35583 15.9176L10.295 13.9784" stroke="#0088FF" stroke-width="1.5" stroke-linecap="round" stroke-linejoin="round"/>
</svg>
