<svg width="25" height="24" viewBox="0 0 25 24" fill="none" xmlns="http://www.w3.org/2000/svg">
<path d="M2.5 12H3.61111M12.5 2V3.11111M21.3889 12H22.5M5.38889 4.88889L6.16667 5.66667M19.6111 4.88889L18.8333 5.66667M9.94466 17.5556H15.0558M9.16667 16.4444C8.23386 15.7448 7.54481 14.7695 7.19715 13.6565C6.84948 12.5435 6.86081 11.3494 7.22954 10.2432C7.59826 9.137 8.30569 8.17488 9.25161 7.4931C10.1975 6.81132 11.334 6.44444 12.5 6.44444C13.666 6.44444 14.8025 6.81132 15.7484 7.4931C16.6943 8.17488 17.4017 9.137 17.7705 10.2432C18.1392 11.3494 18.1505 12.5435 17.8029 13.6565C17.4552 14.7695 16.7661 15.7448 15.8333 16.4444C15.3995 16.8739 15.0729 17.3994 14.8799 17.9785C14.6868 18.5576 14.6328 19.174 14.7222 19.7778C14.7222 20.3671 14.4881 20.9324 14.0713 21.3491C13.6546 21.7659 13.0894 22 12.5 22C11.9106 22 11.3454 21.7659 10.9287 21.3491C10.5119 20.9324 10.2778 20.3671 10.2778 19.7778C10.3672 19.174 10.3132 18.5576 10.1201 17.9785C9.92711 17.3994 9.60048 16.8739 9.16667 16.4444Z" stroke="black" stroke-width="1.5" stroke-linecap="round" stroke-linejoin="round"/>
</svg>
