<svg width="40" height="41" viewBox="0 0 40 41" fill="none" xmlns="http://www.w3.org/2000/svg">
<g filter="url(#filter0_ii_86_1257)">
<rect y="0.833496" width="40" height="40" rx="12" fill="url(#paint0_radial_86_1257)"/>
<rect x="0.25" y="1.0835" width="39.5" height="39.5" rx="11.75" stroke="#68B8FF" stroke-width="0.5"/>
<g clip-path="url(#clip0_86_1257)">
<path d="M21.8617 19.3021L29.1471 10.8335H27.4207L21.0948 18.1867L16.0424 10.8335H10.215L17.8553 21.9528L10.215 30.8335H11.9415L18.6217 23.0683L23.9575 30.8335H29.7849L21.8613 19.3021H21.8617ZM19.4971 22.0508L18.723 20.9436L12.5635 12.1332H15.2153L20.1861 19.2434L20.9602 20.3507L27.4215 29.5929H24.7697L19.4971 22.0512V22.0508Z" fill="white"/>
</g>
</g>
<defs>
<filter id="filter0_ii_86_1257" x="0" y="-1.1665" width="40" height="44" filterUnits="userSpaceOnUse" color-interpolation-filters="sRGB">
<feFlood flood-opacity="0" result="BackgroundImageFix"/>
<feBlend mode="normal" in="SourceGraphic" in2="BackgroundImageFix" result="shape"/>
<feColorMatrix in="SourceAlpha" type="matrix" values="0 0 0 0 0 0 0 0 0 0 0 0 0 0 0 0 0 0 127 0" result="hardAlpha"/>
<feOffset dy="2"/>
<feGaussianBlur stdDeviation="2"/>
<feComposite in2="hardAlpha" operator="arithmetic" k2="-1" k3="1"/>
<feColorMatrix type="matrix" values="0 0 0 0 1 0 0 0 0 1 0 0 0 0 1 0 0 0 0.15 0"/>
<feBlend mode="normal" in2="shape" result="effect1_innerShadow_86_1257"/>
<feColorMatrix in="SourceAlpha" type="matrix" values="0 0 0 0 0 0 0 0 0 0 0 0 0 0 0 0 0 0 127 0" result="hardAlpha"/>
<feOffset dy="-2"/>
<feGaussianBlur stdDeviation="2"/>
<feComposite in2="hardAlpha" operator="arithmetic" k2="-1" k3="1"/>
<feColorMatrix type="matrix" values="0 0 0 0 0.00160217 0 0 0 0 0.00160217 0 0 0 0 0.00160217 0 0 0 0.1 0"/>
<feBlend mode="normal" in2="effect1_innerShadow_86_1257" result="effect2_innerShadow_86_1257"/>
</filter>
<radialGradient id="paint0_radial_86_1257" cx="0" cy="0" r="1" gradientUnits="userSpaceOnUse" gradientTransform="translate(20 -2.09514) rotate(90) scale(42.9286)">
<stop stop-color="#5BB3FF"/>
<stop offset="1" stop-color="#0088FF"/>
</radialGradient>
<clipPath id="clip0_86_1257">
<rect width="20" height="20" fill="white" transform="translate(10 10.8335)"/>
</clipPath>
</defs>
</svg>
