<svg width="40" height="41" viewBox="0 0 40 41" fill="none" xmlns="http://www.w3.org/2000/svg">
<g filter="url(#filter0_ii_86_1288)">
<path d="M0 20.0335C0 13.3129 0 9.95255 1.30792 7.38561C2.4584 5.12767 4.29417 3.2919 6.55211 2.14142C9.11905 0.833496 12.4794 0.833496 19.2 0.833496H20.8C27.5206 0.833496 30.8809 0.833496 33.4479 2.14142C35.7058 3.2919 37.5416 5.12767 38.6921 7.38561C40 9.95255 40 13.3129 40 20.0335V21.6335C40 28.3541 40 31.7144 38.6921 34.2814C37.5416 36.5393 35.7058 38.3751 33.4479 39.5256C30.8809 40.8335 27.5206 40.8335 20.8 40.8335H19.2C12.4794 40.8335 9.11905 40.8335 6.55211 39.5256C4.29417 38.3751 2.4584 36.5393 1.30792 34.2814C0 31.7144 0 28.3541 0 21.6335V20.0335Z" fill="url(#paint0_radial_86_1288)"/>
<path d="M19.2002 1.0835H20.7998C24.1642 1.0835 26.6727 1.08412 28.6611 1.24658C30.5225 1.39866 31.9089 1.69191 33.0986 2.24951L33.334 2.36377C35.4066 3.41984 37.1162 5.06612 38.25 7.08936L38.4697 7.49951C39.1026 8.74176 39.4247 10.1871 39.5869 12.1724C39.7494 14.1608 39.75 16.6693 39.75 20.0337V21.6333C39.75 24.9977 39.7494 27.5062 39.5869 29.4946C39.4348 31.356 39.1416 32.7424 38.584 33.9321L38.4697 34.1675C37.4137 36.2401 35.7674 37.9497 33.7441 39.0835L33.334 39.3032C32.0917 39.9361 30.6464 40.2582 28.6611 40.4204C26.6727 40.5829 24.1642 40.5835 20.7998 40.5835H19.2002C15.8358 40.5835 13.3273 40.5829 11.3389 40.4204C9.47746 40.2683 8.09106 39.9751 6.90137 39.4175L6.66602 39.3032C4.59337 38.2472 2.8838 36.6009 1.75 34.5776L1.53027 34.1675C0.897425 32.9252 0.575292 31.4799 0.413086 29.4946C0.250625 27.5062 0.25 24.9977 0.25 21.6333V20.0337C0.25 16.6693 0.250625 14.1608 0.413086 12.1724C0.565169 10.311 0.858413 8.92455 1.41602 7.73486L1.53027 7.49951C2.58634 5.42686 4.23262 3.71729 6.25586 2.5835L6.66602 2.36377C7.90826 1.73092 9.35356 1.40879 11.3389 1.24658C13.3273 1.08412 15.8358 1.0835 19.2002 1.0835Z" stroke="#68B8FF" stroke-width="0.5"/>
<path d="M29.582 15.9881C29.352 15.1221 28.6742 14.44 27.8141 14.2084C26.2543 13.7881 20 13.7881 20 13.7881C20 13.7881 13.7457 13.7881 12.1859 14.2084C11.3258 14.44 10.648 15.1221 10.418 15.9881C10 17.558 10 20.8334 10 20.8334C10 20.8334 10 24.1088 10.418 25.6787C10.648 26.5447 11.3258 27.2268 12.1859 27.4584C13.7457 27.8787 20 27.8787 20 27.8787C20 27.8787 26.2543 27.8787 27.8141 27.4584C28.6742 27.2268 29.352 26.5447 29.582 25.6787C30 24.1088 30 20.8334 30 20.8334C30 20.8334 30 17.558 29.582 15.9881ZM17.9547 23.8072V17.8596L23.1816 20.8334L17.9547 23.8072Z" fill="white"/>
</g>
<defs>
<filter id="filter0_ii_86_1288" x="0" y="-1.1665" width="40" height="44" filterUnits="userSpaceOnUse" color-interpolation-filters="sRGB">
<feFlood flood-opacity="0" result="BackgroundImageFix"/>
<feBlend mode="normal" in="SourceGraphic" in2="BackgroundImageFix" result="shape"/>
<feColorMatrix in="SourceAlpha" type="matrix" values="0 0 0 0 0 0 0 0 0 0 0 0 0 0 0 0 0 0 127 0" result="hardAlpha"/>
<feOffset dy="2"/>
<feGaussianBlur stdDeviation="2"/>
<feComposite in2="hardAlpha" operator="arithmetic" k2="-1" k3="1"/>
<feColorMatrix type="matrix" values="0 0 0 0 1 0 0 0 0 1 0 0 0 0 1 0 0 0 0.15 0"/>
<feBlend mode="normal" in2="shape" result="effect1_innerShadow_86_1288"/>
<feColorMatrix in="SourceAlpha" type="matrix" values="0 0 0 0 0 0 0 0 0 0 0 0 0 0 0 0 0 0 127 0" result="hardAlpha"/>
<feOffset dy="-2"/>
<feGaussianBlur stdDeviation="2"/>
<feComposite in2="hardAlpha" operator="arithmetic" k2="-1" k3="1"/>
<feColorMatrix type="matrix" values="0 0 0 0 0.00160217 0 0 0 0 0.00160217 0 0 0 0 0.00160217 0 0 0 0.1 0"/>
<feBlend mode="normal" in2="effect1_innerShadow_86_1288" result="effect2_innerShadow_86_1288"/>
</filter>
<radialGradient id="paint0_radial_86_1288" cx="0" cy="0" r="1" gradientUnits="userSpaceOnUse" gradientTransform="translate(20 -2.09514) rotate(90) scale(42.9286)">
<stop stop-color="#5BB3FF"/>
<stop offset="1" stop-color="#0088FF"/>
</radialGradient>
</defs>
</svg>
