<svg width="142" height="32" viewBox="0 0 142 32" fill="none" xmlns="http://www.w3.org/2000/svg">
<path d="M40.5642 25.9786V4.64526H53.5387V8.7743H45.4797V14.5091H53.5387V18.5807H45.4797V25.9786H40.5642Z" fill="#303133"/>
<path d="M56.7967 25.9785V11.2975H61.4264V14.3369C61.655 13.3046 62.1694 12.4444 62.9124 11.871C63.6555 11.2975 64.5128 11.0107 65.4273 11.0107C65.8846 11.0107 66.3418 11.0681 66.6276 11.1254V15.4839C66.056 15.4265 65.5988 15.3692 65.2558 15.3692C62.6838 15.3692 61.4264 17.0322 61.4264 20.2437V25.9211H56.7967V25.9785Z" fill="#303133"/>
<path d="M74.6295 26.3225C72.5147 26.3225 70.8 25.577 69.5997 24.1433C68.3423 22.7096 67.7707 20.8171 67.7707 18.5806C67.7707 16.344 68.3994 14.5089 69.6569 13.0178C70.9143 11.5841 72.629 10.8386 74.6866 10.8386C75.7154 10.8386 76.6299 11.068 77.4301 11.5268C78.2303 11.9856 78.859 12.5591 79.2591 13.3619V11.2401H83.8888V25.9211H79.2591V23.8565C78.859 24.6021 78.2303 25.1755 77.373 25.6343C76.5728 26.1505 75.6583 26.3225 74.6295 26.3225ZM75.9441 22.4802C77.03 22.4802 77.9445 22.1361 78.5161 21.3906C79.0877 20.6451 79.4306 19.7275 79.4306 18.6379C79.4306 17.5483 79.1448 16.6307 78.5161 15.8852C77.8874 15.1397 77.03 14.7956 75.9441 14.7956C74.9153 14.7956 74.0579 15.1397 73.4292 15.8852C72.8005 16.5734 72.4575 17.5483 72.4575 18.6379C72.4575 19.7849 72.8005 20.7024 73.4292 21.4479C74.0579 22.1361 74.9153 22.4802 75.9441 22.4802Z" fill="#303133"/>
<path d="M87.7183 25.9787V11.2977H92.348V13.4195C92.6909 12.674 93.2053 12.0432 93.9484 11.5844C94.6914 11.1256 95.5488 10.8962 96.5204 10.8962C98.8067 10.8962 100.35 11.8138 101.093 13.5916C101.493 12.7887 102.122 12.1005 102.922 11.6418C103.779 11.1256 104.694 10.8962 105.723 10.8962C109.209 10.8962 110.924 12.9034 110.924 16.8604V25.9787H106.237V17.7206C106.237 15.7708 105.494 14.8532 104.065 14.8532C102.408 14.8532 101.607 16.0575 101.607 18.4661V26.036H97.0348V17.6633C97.0348 15.7708 96.2918 14.7959 94.8629 14.7959C94.0627 14.7959 93.434 15.0826 93.0339 15.5987C92.6338 16.1149 92.4052 17.0898 92.4052 18.4088V25.9787H87.7183Z" fill="#303133"/>
<path d="M129.1 17.8353C129.1 18.4661 129.042 19.097 128.985 19.8998H118.183C118.24 20.8747 118.526 21.6203 119.154 22.1364C119.783 22.6525 120.583 22.9393 121.612 22.9393C123.041 22.9393 123.955 22.4805 124.356 21.5629H128.928C128.699 22.9966 127.899 24.2009 126.585 25.0611C125.213 25.9787 123.613 26.4375 121.669 26.4375C119.154 26.4375 117.211 25.7493 115.782 24.3729C114.353 22.9966 113.61 21.1041 113.61 18.6382C113.61 16.2296 114.353 14.3371 115.782 12.9608C117.211 11.5844 119.154 10.8962 121.498 10.8962C123.784 10.8962 125.613 11.5271 127.042 12.8461C128.357 14.1077 129.1 15.7708 129.1 17.8353ZM118.126 16.9751H124.47C124.47 16.0002 124.184 15.2547 123.67 14.7385C123.155 14.2224 122.412 13.9357 121.383 13.9357C120.412 13.9357 119.612 14.2224 119.04 14.7959C118.468 15.3694 118.183 16.1149 118.126 16.9751Z" fill="#303133"/>
<path d="M131.729 25.9785V11.2975H136.358V14.3369C136.587 13.3046 137.102 12.4444 137.845 11.871C138.588 11.2975 139.445 11.0107 140.359 11.0107C140.817 11.0107 141.274 11.0681 141.56 11.1254V15.4839C140.988 15.4265 140.531 15.3692 140.188 15.3692C137.616 15.3692 136.358 17.0322 136.358 20.2437V25.9211H131.729V25.9785Z" fill="#303133"/>
<path d="M21.7026 0V10.6667H11.0715L0.440369 0H21.7026ZM0.440369 10.6667H11.0715L21.7026 21.3333H11.0715V32L0.440369 21.3333V10.6667Z" fill="#303133"/>
</svg>
