<svg width="110" height="32" viewBox="0 0 110 32" fill="none" xmlns="http://www.w3.org/2000/svg">
<g clip-path="url(#clip0_100_414)">
<path d="M12.1406 5.13428V13.8827H4.10347V5.13428H0.290314V26.0179H4.10451V17.5534H12.1396V26.0179H15.9548V5.13428H12.1406ZM28.1633 19.268C28.1633 20.105 27.8308 20.9078 27.2389 21.4997C26.647 22.0916 25.8443 22.4241 25.0072 22.4241C24.1702 22.4241 23.3674 22.0916 22.7755 21.4997C22.1836 20.9078 21.8511 20.105 21.8511 19.268V10.3224H18.233V19.268C18.233 21.0628 18.946 22.7841 20.2152 24.0533C21.4843 25.3224 23.2057 26.0354 25.0005 26.0354C26.7954 26.0354 28.5167 25.3224 29.7858 24.0533C31.055 22.7841 31.768 21.0628 31.768 19.268V10.3224H28.1633V19.268ZM54.9721 11.2442C54.9721 9.40989 56.185 8.82873 57.5135 8.82873C58.585 8.82873 59.9992 9.64421 60.9252 10.6331L63.2942 7.83983C62.1112 6.23983 59.7122 5.13428 57.7479 5.13428C53.8222 5.13428 50.9835 7.43312 50.9835 11.2442C50.9835 18.3152 59.6255 16.0711 59.6255 20.0287C59.6255 21.2489 58.4405 22.3265 57.0841 22.3265C54.9442 22.3265 54.2506 21.2809 53.2679 20.1743L50.6377 22.9087C52.3202 24.9732 54.3951 26.022 56.8797 26.022C60.6093 26.022 63.609 23.6953 63.609 20.0576C63.609 12.2083 54.9659 14.6476 54.9659 11.2442M108.437 22.6816C106.299 22.6816 105.691 21.7567 105.691 20.3405V14.0695H109.015V10.8922H105.691V6.70021L102.022 8.34666V21.1198C102.022 24.3869 104.277 26.0334 107.367 26.0334C107.853 26.0416 108.338 26.0024 108.815 25.9178L109.71 22.6228C109.306 22.6507 108.843 22.6785 108.437 22.6785M41.9357 10.4267C40.1437 10.4267 38.8926 10.9469 37.6828 12.133V5.25918H34.0596V18.0003C34.0596 22.7694 37.5073 26.0375 41.3824 26.0375C45.6808 26.0375 49.4619 22.7116 49.4619 18.2336C49.4619 13.8114 45.9822 10.4298 41.9357 10.4298M41.913 22.3905C41.373 22.3905 40.8383 22.2842 40.3394 22.0775C39.8405 21.8709 39.3872 21.568 39.0054 21.1862C38.6236 20.8043 38.3207 20.351 38.114 19.8521C37.9074 19.3532 37.801 18.8185 37.801 18.2785C37.801 17.7385 37.9074 17.2038 38.114 16.7049C38.3207 16.206 38.6236 15.7527 39.0054 15.3709C39.3872 14.9891 39.8405 14.6862 40.3394 14.4795C40.8383 14.2729 41.373 14.1665 41.913 14.1665C43.0036 14.1665 44.0495 14.5998 44.8206 15.3709C45.5918 16.1421 46.025 17.188 46.025 18.2785C46.025 19.3691 45.5918 20.415 44.8206 21.1862C44.0495 21.9573 43.0036 22.3905 41.913 22.3905ZM81.2854 18.0437C81.2854 13.5575 77.5125 10.2398 73.2059 10.2398C69.3319 10.2398 65.8831 13.5069 65.8831 18.277V31.0254H69.5063V24.1423C70.7141 25.3263 71.9672 25.8486 73.7571 25.8486C77.8036 25.8486 81.2854 22.4669 81.2854 18.0437ZM77.8542 17.9983C77.8542 19.0888 77.421 20.1348 76.6498 20.9059C75.8787 21.677 74.8328 22.1103 73.7422 22.1103C72.6516 22.1103 71.6057 21.677 70.8346 20.9059C70.0634 20.1348 69.6302 19.0888 69.6302 17.9983C69.6302 16.9077 70.0634 15.8618 70.8346 15.0907C71.6057 14.3195 72.6516 13.8863 73.7422 13.8863C74.8328 13.8863 75.8787 14.3195 76.6498 15.0907C77.421 15.8618 77.8542 16.9077 77.8542 17.9983Z" fill="#33475B"/>
<path d="M92.9933 10.0644V6.42361C93.4744 6.19875 93.8817 5.84187 94.1679 5.39451C94.4541 4.94715 94.6073 4.4277 94.6098 3.89664V3.81303C94.6098 2.26464 93.3546 1.00941 91.8062 1.00941H91.7226C90.979 1.00941 90.2659 1.30479 89.7401 1.83057C89.2143 2.35635 88.9189 3.06946 88.9189 3.81303V3.89664C88.9214 4.4277 89.0746 4.94715 89.3608 5.39451C89.647 5.84187 90.0543 6.19875 90.5355 6.42361V10.0644C89.1527 10.2761 87.8504 10.8494 86.7605 11.7263L76.7755 3.94929C76.8467 3.69225 76.8838 3.42799 76.888 3.1627C76.8892 2.53788 76.7051 1.92674 76.3589 1.40657C76.0128 0.886395 75.5201 0.48057 74.9433 0.240424C74.3665 0.000277996 73.7314 -0.0633998 73.1184 0.0574451C72.5053 0.17829 71.9419 0.478228 71.4994 0.919321C71.0568 1.36041 70.7551 1.92284 70.6322 2.53547C70.5094 3.14809 70.571 3.78339 70.8092 4.361C71.0475 4.93861 71.4517 5.43259 71.9707 5.78044C72.4898 6.1283 73.1003 6.3144 73.7251 6.31522C74.2718 6.31265 74.8082 6.16671 75.2808 5.89199L85.113 13.5431C84.2297 14.8775 83.7689 16.447 83.7907 18.047C83.8124 19.6471 84.3156 21.2035 85.2348 22.5134L82.2444 25.5049C82.0026 25.4276 81.7508 25.3865 81.497 25.3831C80.9841 25.3835 80.4829 25.5359 80.0566 25.8211C79.6303 26.1063 79.2982 26.5115 79.1021 26.9854C78.906 27.4593 78.8548 27.9807 78.9549 28.4837C79.0551 28.9867 79.3021 29.4488 79.6648 29.8114C80.0275 30.1741 80.4895 30.4211 80.9925 30.5213C81.4955 30.6214 82.0169 30.5702 82.4908 30.3742C82.9647 30.1781 83.3699 29.8459 83.6551 29.4196C83.9403 28.9934 84.0927 28.4921 84.0931 27.9792C84.0898 27.7254 84.0488 27.4736 83.9713 27.2319L86.9298 24.2724C87.8945 25.0151 89.0164 25.5271 90.2096 25.7693C91.4028 26.0114 92.6356 25.9772 93.8135 25.6693C94.9915 25.3614 96.0833 24.788 97.0054 23.9929C97.9275 23.1979 98.6553 22.2023 99.1332 21.0825C99.6111 19.9627 99.8264 18.7484 99.7624 17.5326C99.6985 16.3168 99.3572 15.1317 98.7645 14.0682C98.1719 13.0046 97.3436 12.0909 96.3433 11.3969C95.3429 10.7029 94.197 10.2471 92.9933 10.0644ZM91.7669 22.0386C91.2202 22.0536 90.676 21.9589 90.1664 21.7601C89.6569 21.5612 89.1924 21.2623 88.8003 20.8809C88.4083 20.4995 88.0967 20.0434 87.8839 19.5395C87.6711 19.0356 87.5615 18.4942 87.5615 17.9472C87.5615 17.4003 87.6711 16.8588 87.8839 16.355C88.0967 15.8511 88.4083 15.395 88.8003 15.0136C89.1924 14.6322 89.6569 14.3332 90.1664 14.1344C90.676 13.9355 91.2202 13.8408 91.7669 13.8559C92.8266 13.893 93.8306 14.3399 94.5673 15.1025C95.304 15.8651 95.7161 16.8839 95.7166 17.9442C95.7171 19.0045 95.3061 20.0237 94.5702 20.7871C93.8342 21.5504 92.8307 21.9983 91.7711 22.0365" fill="#FF7A59"/>
</g>
<defs>
<clipPath id="clip0_100_414">
<rect width="109.419" height="32" fill="white" transform="translate(0.290314)"/>
</clipPath>
</defs>
</svg>
