<svg width="124" height="36" viewBox="0 0 124 36" fill="none" xmlns="http://www.w3.org/2000/svg">
<g clip-path="url(#clip0_100_464)">
<path d="M26.9288 7.129C26.9049 6.95515 26.753 6.8587 26.627 6.8482C26.5019 6.8377 24.0511 6.80046 24.0511 6.80046C24.0511 6.80046 22.0014 4.81002 21.7989 4.60754C21.5965 4.40506 21.201 4.46618 21.0473 4.51203C21.0454 4.51299 20.6624 4.63142 20.0177 4.83103C19.9098 4.48147 19.7512 4.05167 19.5248 3.61996C18.7952 2.22743 17.7264 1.49105 16.4351 1.48914C16.4332 1.48914 16.4322 1.48914 16.4303 1.48914C16.3405 1.48914 16.2517 1.49774 16.162 1.50537C16.1238 1.45953 16.0855 1.41464 16.0454 1.3707C15.4828 0.768992 14.7618 0.475776 13.8974 0.501564C12.2298 0.549319 10.5689 1.7537 9.22221 3.89312C8.27474 5.39836 7.55363 7.28948 7.34925 8.75363C5.43426 9.34674 4.09521 9.76123 4.0656 9.77081C3.09904 10.0745 3.06848 10.1041 2.94241 11.0153C2.84881 11.7039 0.319702 31.2606 0.319702 31.2606L21.5143 34.9262L30.7004 32.6426C30.7004 32.6426 26.9526 7.30285 26.9288 7.129ZM18.9566 5.15958C18.4685 5.31049 17.9136 5.48241 17.3119 5.66866C17.2995 4.82435 17.1992 3.64958 16.8057 2.6343C18.0712 2.87403 18.6939 4.30573 18.9566 5.15958ZM16.203 6.01249C15.0922 6.3563 13.8802 6.73166 12.6644 7.108C13.0063 5.79855 13.6548 4.49484 14.4514 3.64002C14.7474 3.32198 15.1619 2.96763 15.6529 2.76515C16.1142 3.72789 16.2145 5.09082 16.203 6.01249ZM13.9308 1.61139C14.3224 1.60279 14.6519 1.68875 14.9337 1.87404C14.4829 2.10804 14.0473 2.44424 13.6386 2.88263C12.5793 4.0192 11.7675 5.78327 11.4437 7.48525C10.4342 7.79756 9.44661 8.10418 8.53736 8.38498C9.11141 5.70591 11.3568 1.68589 13.9308 1.61139Z" fill="#95BF47"/>
<path d="M26.6278 6.84905C26.5027 6.83855 24.0519 6.80131 24.0519 6.80131C24.0519 6.80131 22.0023 4.81087 21.7998 4.60839C21.7243 4.53293 21.6221 4.49377 21.5151 4.47754L21.5161 34.9252L30.7013 32.6425C30.7013 32.6425 26.9535 7.3037 26.9296 7.12985C26.9057 6.956 26.7529 6.85955 26.6278 6.84905Z" fill="#5E8E3E"/>
<path d="M16.4235 11.572L15.3567 15.5633C15.3567 15.5633 14.1666 15.0218 12.756 15.1106C10.6872 15.2415 10.6652 16.5461 10.6863 16.8738C10.7989 18.6588 15.4951 19.0485 15.7588 23.2299C15.966 26.5193 14.0138 28.7695 11.201 28.9472C7.82475 29.1601 5.96613 27.1688 5.96613 27.1688L6.68151 24.1258C6.68151 24.1258 8.55252 25.5375 10.0501 25.4429C11.0282 25.3808 11.3777 24.5852 11.3424 24.0227C11.1953 21.6941 7.37107 21.8317 7.12945 18.0055C6.92599 14.7859 9.04062 11.5233 13.7062 11.2291C15.5037 11.1136 16.4235 11.572 16.4235 11.572Z" fill="white"/>
<path d="M42.7971 19.9301C41.7408 19.3569 41.198 18.8738 41.198 18.2097C41.198 17.3647 41.952 16.8219 43.1296 16.8219C44.5003 16.8219 45.7242 17.395 45.7242 17.395L46.6895 14.4375C46.6895 14.4375 45.8019 13.7432 43.1892 13.7432C39.5534 13.7432 37.0336 15.8253 37.0336 18.7525C37.0336 20.4122 38.2102 21.6797 39.7798 22.5844C41.0474 23.3081 41.5002 23.8216 41.5002 24.5757C41.5002 25.3601 40.8665 25.9938 39.6899 25.9938C37.9364 25.9938 36.2805 25.0882 36.2805 25.0882L35.2546 28.0457C35.2546 28.0457 36.7845 29.0716 39.3583 29.0716C43.1002 29.0716 45.7859 27.231 45.7859 23.9116C45.7849 22.1325 44.4274 20.865 42.7971 19.9301Z" fill="#303133"/>
<path d="M57.7041 13.7135C55.8633 13.7135 54.4149 14.5889 53.299 15.9161L53.2383 15.8857L54.8374 7.52759H50.673L46.6299 28.8004H50.7943L52.1821 21.5288C52.7249 18.7826 54.143 17.0935 55.4712 17.0935C56.4061 17.0935 56.769 17.7273 56.769 18.6329C56.769 19.2061 56.7083 19.9004 56.588 20.4736L55.0193 28.8014H59.1839L60.8128 20.2017C60.9941 19.296 61.1152 18.2104 61.1152 17.4857C61.1135 15.1317 59.8764 13.7135 57.7041 13.7135Z" fill="#303133"/>
<path d="M70.5278 13.7139C65.5182 13.7139 62.2001 18.2402 62.2001 23.2789C62.2001 26.5073 64.1911 29.102 67.9333 29.102C72.8516 29.102 76.1709 24.697 76.1709 19.537C76.1709 16.5501 74.4203 13.7139 70.5278 13.7139ZM68.476 25.9048C67.0577 25.9048 66.4541 24.698 66.4541 23.1889C66.4541 20.8054 67.6917 16.913 69.9546 16.913C71.4332 16.913 71.9152 18.1804 71.9152 19.4177C71.9152 21.982 70.6793 25.9048 68.476 25.9048Z" fill="#303133"/>
<path d="M86.8224 13.7139C84.0115 13.7139 82.4164 16.1883 82.4164 16.1883H82.3567L82.5983 13.9554H78.917C78.7362 15.4645 78.4034 17.757 78.0724 19.4773L75.1754 34.7148H79.3398L80.4857 28.5592H80.5769C80.5769 28.5592 81.4312 29.102 83.0212 29.102C87.9091 29.102 91.1073 24.0936 91.1073 19.0236C91.1073 16.2186 89.8697 13.7139 86.8224 13.7139ZM82.8393 25.9645C81.7583 25.9645 81.1185 25.3611 81.1185 25.3611L81.8128 21.4686C82.2959 18.8739 83.6535 17.1536 85.1022 17.1536C86.3697 17.1536 86.7616 18.3301 86.7616 19.447C86.7616 22.1326 85.1625 25.9645 82.8393 25.9645Z" fill="#303133"/>
<path d="M97.0516 7.73926C95.7245 7.73926 94.6682 8.79551 94.6682 10.153C94.6682 11.3902 95.4525 12.2352 96.6293 12.2352H96.6895C97.9874 12.2352 99.1034 11.3599 99.1338 9.82147C99.1338 8.61454 98.319 7.73926 97.0516 7.73926Z" fill="#303133"/>
<path d="M91.2284 28.8008H95.3917L98.229 14.0464H94.0341L91.2284 28.8008Z" fill="#303133"/>
<path d="M108.82 14.0159H105.923L106.073 13.3216C106.315 11.9034 107.16 10.6359 108.548 10.6359C109.289 10.6359 109.875 10.8472 109.875 10.8472L110.69 7.58844C110.69 7.58844 109.966 7.22656 108.427 7.22656C106.948 7.22656 105.47 7.64903 104.353 8.61434C102.935 9.82127 102.271 11.5709 101.939 13.3216L101.82 14.0159H99.8877L99.2841 17.1544H101.216L99.0132 28.8016H103.178L105.38 17.1544H108.247L108.82 14.0159Z" fill="#303133"/>
<path d="M118.838 14.0464C118.838 14.0464 116.234 20.6046 115.066 24.1845H115.005C114.926 23.0316 113.979 14.0464 113.979 14.0464H109.603L112.109 27.5939C112.17 27.8951 112.139 28.077 112.018 28.2882C111.535 29.2232 110.72 30.1289 109.755 30.793C108.97 31.366 108.095 31.7279 107.402 31.9695L108.548 35.5001C109.393 35.3192 111.143 34.6248 112.621 33.237C114.523 31.457 116.272 28.7108 118.083 24.9689L123.182 14.0454H118.838V14.0464Z" fill="#303133"/>
</g>
<defs>
<clipPath id="clip0_100_464">
<rect width="123.361" height="35" fill="white" transform="translate(0.319702 0.5)"/>
</clipPath>
</defs>
</svg>
