<svg width="204" height="48" viewBox="0 0 204 48" fill="none" xmlns="http://www.w3.org/2000/svg">
<path fill-rule="evenodd" clip-rule="evenodd" d="M22.0787 24.7347L31.7516 14.9434C32.4088 14.2782 33.2832 13.9124 34.2153 13.9124C35.1467 13.9124 36.0211 14.2778 36.6776 14.9431L37.4312 15.7059L38.9388 14.1799L38.1852 13.417C37.1265 12.3453 35.7167 11.7551 34.2146 11.7551C32.7132 11.7555 31.3031 12.3457 30.2443 13.4177L20.5715 23.2087L22.0787 24.7347Z" fill="#303133"/>
<path fill-rule="evenodd" clip-rule="evenodd" d="M35.0206 18.1958L33.5059 16.672L23.7876 26.4488C22.4228 27.8217 20.2023 27.8221 18.8379 26.4495C17.4732 25.0766 17.4732 22.8424 18.8379 21.4695L27.2239 13.0337L25.7092 11.5103L17.3235 19.9461C15.1237 22.1591 15.1237 25.7603 17.3235 27.9729C18.3873 29.043 19.8037 29.6327 21.3122 29.6327C22.8211 29.6327 24.2382 29.0427 25.3019 27.9726L35.0206 18.1958Z" fill="#303133"/>
<path fill-rule="evenodd" clip-rule="evenodd" d="M44.6356 20.0266C43.5722 18.9565 42.1557 18.3672 40.6465 18.3672C39.1376 18.3675 37.7205 18.9569 36.6568 20.0273L26.9388 29.804L28.4528 31.3278L38.1715 21.5508C39.5366 20.1779 41.7568 20.1782 43.1212 21.5505C43.7811 22.2144 44.1446 23.0982 44.1446 24.04C44.1446 24.9821 43.7811 25.8663 43.1212 26.5302L34.7355 34.9662L36.2502 36.4896L44.6356 28.054C46.8358 25.8409 46.8358 22.2397 44.6356 20.0266Z" fill="#303133"/>
<path fill-rule="evenodd" clip-rule="evenodd" d="M39.8806 23.2651L30.2079 33.0565C28.8493 34.431 26.6396 34.4317 25.2816 33.0568L24.528 32.2939L23.0204 33.82L23.7741 34.5829C24.8327 35.6545 26.2425 36.2447 27.7449 36.2447C29.2463 36.2444 30.6561 35.6542 31.7151 34.5822L41.3878 24.7912L39.8806 23.2651Z" fill="#303133"/>
<path fill-rule="evenodd" clip-rule="evenodd" d="M55.2182 26.5495C55.3429 27.1742 55.6353 27.6633 56.0947 28.0158C56.5536 28.3689 57.1576 28.5451 57.9066 28.5451C58.6436 28.5451 59.2133 28.3717 59.616 28.0245C60.0188 27.6777 60.22 27.2207 60.22 26.6536C60.22 26.376 60.1662 26.1418 60.0586 25.9509C59.9506 25.76 59.8004 25.5981 59.6078 25.4649C59.4145 25.3324 59.1766 25.2192 58.8931 25.1269C58.6096 25.0342 58.2919 24.936 57.9402 24.8318L57.0219 24.5717C56.4772 24.4213 55.9894 24.2392 55.5585 24.0249C55.1273 23.8109 54.7588 23.5592 54.4527 23.27C54.1466 22.9809 53.9139 22.6484 53.7552 22.2722C53.5965 21.8964 53.517 21.4594 53.517 20.9622C53.517 20.4416 53.6191 19.9616 53.8234 19.5218C54.0274 19.0826 54.3167 18.7061 54.691 18.3939C55.0653 18.0817 55.5188 17.8359 56.0522 17.6562C56.5848 17.4775 57.1857 17.3877 57.8552 17.3877C59.1142 17.3877 60.112 17.6912 60.8497 18.2985C61.5867 18.9061 62.0175 19.7186 62.1427 20.7367L60.1011 20.9101C59.976 20.3895 59.7267 19.9847 59.3524 19.6955C58.9781 19.4064 58.4564 19.2617 57.7873 19.2617C57.1634 19.2617 56.6757 19.4092 56.3243 19.7043C55.9723 19.9993 55.7964 20.3783 55.7964 20.8409C55.7964 21.1069 55.8479 21.3293 55.95 21.5086C56.0522 21.6884 56.1992 21.8443 56.3922 21.9771C56.5848 22.1103 56.8203 22.2289 57.098 22.3327C57.376 22.4369 57.6906 22.5474 58.0423 22.6627L58.9102 22.9403C59.4542 23.1137 59.9451 23.2959 60.3815 23.4868C60.8182 23.6777 61.1897 23.9063 61.4958 24.1724C61.8023 24.4385 62.0378 24.7566 62.202 25.1269C62.3665 25.4971 62.4488 25.9541 62.4488 26.4977C62.4488 27.0763 62.3353 27.6056 62.1087 28.0853C61.8815 28.5657 61.5644 28.9734 61.1558 29.3086C60.7475 29.6443 60.2629 29.9047 59.701 30.0893C59.1396 30.2743 58.5188 30.3673 57.8384 30.3673C56.5793 30.3673 55.5301 30.0666 54.691 29.4649C53.8515 28.8632 53.3356 27.9553 53.1426 26.7403L55.2182 26.5495Z" fill="#303133"/>
<path fill-rule="evenodd" clip-rule="evenodd" d="M71.2312 19.4979C70.6192 19.4979 70.072 19.6131 69.5902 19.8428C69.1081 20.0728 68.7 20.3916 68.3659 20.7994C68.0311 21.2077 67.7758 21.6907 67.6 22.2475C67.4246 22.8054 67.3369 23.4116 67.3369 24.0665C67.3369 24.7218 67.4273 25.3308 67.6089 25.8943C67.7899 26.4573 68.0482 26.9456 68.3827 27.3597C68.7167 27.7732 69.1252 28.0979 69.6073 28.3338C70.0888 28.5691 70.636 28.6867 71.2483 28.6867C71.8606 28.6867 72.4075 28.575 72.8896 28.3509C73.3711 28.1267 73.7795 27.8135 74.114 27.4109C74.4484 27.0089 74.7064 26.5231 74.8877 25.9545C75.069 25.3855 75.1598 24.7619 75.1598 24.0839C75.1598 23.4172 75.069 22.8022 74.8877 22.2391C74.7064 21.6764 74.4484 21.1934 74.114 20.7911C73.7795 20.3891 73.3683 20.0728 72.8807 19.8428C72.3935 19.6131 71.8435 19.4979 71.2312 19.4979ZM71.2483 17.6326C72.1666 17.6326 73.0058 17.7909 73.7655 18.1076C74.5248 18.4243 75.1711 18.8673 75.7042 19.4373C76.2367 20.0077 76.6503 20.6898 76.9457 21.4843C77.2404 22.2788 77.3877 23.1481 77.3877 24.0923C77.3877 25.0716 77.2318 25.9552 76.9203 26.7438C76.6078 27.5327 76.1634 28.2148 75.585 28.7904L77.2178 30.7424V31.3469H75.143L74.0033 29.9308C73.6065 30.1149 73.1809 30.2586 72.7279 30.3623C72.2742 30.466 71.7866 30.5179 71.2654 30.5179C70.3242 30.5179 69.4768 30.3592 68.7229 30.0429C67.9687 29.7262 67.328 29.2828 66.8009 28.7128C66.2736 28.1427 65.8655 27.4638 65.5766 26.6745C65.2874 25.8859 65.1428 25.0253 65.1428 24.0923C65.1428 23.1481 65.2874 22.282 65.5766 21.4927C65.8655 20.7044 66.2763 20.0248 66.8095 19.4547C67.342 18.8847 67.9855 18.4386 68.7397 18.116C69.4939 17.794 70.33 17.6326 71.2483 17.6326Z" fill="#303133"/>
<path fill-rule="evenodd" clip-rule="evenodd" d="M85.7145 28.5802C86.5845 28.5802 87.2623 28.3058 87.7482 27.7563C88.2338 27.2067 88.4769 26.3653 88.4769 25.2316V17.6326H90.6124V25.2837C90.6124 26.186 90.4994 26.9578 90.2734 27.6C90.047 28.2418 89.7253 28.7683 89.3074 29.1791C88.8894 29.5898 88.3752 29.8904 87.7653 30.0813C87.1551 30.2722 86.4715 30.3673 85.7145 30.3673C84.9459 30.3673 84.2595 30.2722 83.6555 30.0813C83.0507 29.8904 82.5396 29.5898 82.1216 29.1791C81.7037 28.7683 81.3816 28.2418 81.1553 27.6C80.9292 26.9578 80.8165 26.186 80.8165 25.2837V17.6326H82.952V25.2316C82.952 26.3653 83.1948 27.2067 83.6807 27.7563C84.1666 28.3058 84.8444 28.5802 85.7145 28.5802Z" fill="#303133"/>
<path fill-rule="evenodd" clip-rule="evenodd" d="M96.7302 24.7844H100.817L100.144 22.8402C99.8793 22.0788 99.667 21.4589 99.5062 20.9816C99.345 20.504 99.2012 20.0834 99.0751 19.7195H98.5408C98.4717 19.9126 98.4025 20.1061 98.3338 20.2992C98.2646 20.4927 98.1872 20.7088 98.101 20.9473C98.0145 21.1861 97.92 21.4589 97.8165 21.7661C97.713 22.0726 97.5865 22.431 97.4372 22.8402L96.7302 24.7844ZM92.8163 29.5255L97.2131 17.8774H100.472L104.816 29.5255V30.1223H102.678L101.437 26.6261H96.0751L94.8339 30.1223H92.8163V29.5255Z" fill="#303133"/>
<path fill-rule="evenodd" clip-rule="evenodd" d="M109.627 23.4712H111.489C112.309 23.4712 112.954 23.3218 113.427 23.0235C113.899 22.7249 114.136 22.2376 114.136 21.561C114.136 20.8738 113.896 20.3951 113.418 20.1247C112.94 19.8546 112.297 19.7192 111.489 19.7192H109.627V23.4712ZM116.816 30.1223H114.75L111.01 25.313H109.627V30.1223H107.51V17.8774H111.489C112.115 17.8774 112.71 17.9201 113.273 18.0053C113.836 18.0905 114.346 18.2867 114.802 18.5935C115.769 19.2299 116.253 20.1907 116.253 21.4748C116.253 22.0322 116.17 22.518 116.005 22.9331C115.84 23.3479 115.621 23.7001 115.348 23.9901C115.074 24.2801 114.759 24.5158 114.4 24.6973C114.042 24.8794 113.669 25.0158 113.282 25.1065L116.816 29.5251V30.1223Z" fill="#303133"/>
<path fill-rule="evenodd" clip-rule="evenodd" d="M119.51 17.8774H127.472V19.7532H121.616V22.9594H127.061V24.8012H121.616V28.2462H127.592V30.1223H119.51V17.8774Z" fill="#303133"/>
<path fill-rule="evenodd" clip-rule="evenodd" d="M132.362 26.5495C132.486 27.1742 132.778 27.6633 133.238 28.0158C133.697 28.3689 134.301 28.5451 135.05 28.5451C135.787 28.5451 136.356 28.3717 136.759 28.0245C137.162 27.6777 137.363 27.2207 137.363 26.6536C137.363 26.376 137.31 26.1418 137.202 25.9509C137.094 25.76 136.943 25.5981 136.751 25.4649C136.558 25.3324 136.32 25.2192 136.036 25.1269C135.753 25.0342 135.435 24.936 135.083 24.8318L134.165 24.5717C133.621 24.4213 133.133 24.2392 132.702 24.0249C132.271 23.8109 131.902 23.5592 131.596 23.27C131.29 22.9809 131.057 22.6484 130.898 22.2722C130.74 21.8964 130.66 21.4594 130.66 20.9622C130.66 20.4416 130.762 19.9616 130.967 19.5218C131.171 19.0826 131.46 18.7061 131.834 18.3939C132.208 18.0817 132.662 17.8359 133.195 17.6562C133.728 17.4775 134.329 17.3877 134.998 17.3877C136.257 17.3877 137.255 17.6912 137.993 18.2985C138.73 18.9061 139.161 19.7186 139.286 20.7367L137.244 20.9101C137.119 20.3895 136.87 19.9847 136.496 19.6955C136.121 19.4064 135.599 19.2617 134.93 19.2617C134.307 19.2617 133.819 19.4092 133.467 19.7043C133.116 19.9993 132.94 20.3783 132.94 20.8409C132.94 21.1069 132.991 21.3293 133.093 21.5086C133.195 21.6884 133.342 21.8443 133.535 21.9771C133.728 22.1103 133.963 22.2289 134.241 22.3327C134.519 22.4369 134.834 22.5474 135.185 22.6627L136.053 22.9403C136.598 23.1137 137.088 23.2959 137.525 23.4868C137.961 23.6777 138.333 23.9063 138.639 24.1724C138.945 24.4385 139.181 24.7566 139.345 25.1269C139.509 25.4971 139.592 25.9541 139.592 26.4977C139.592 27.0763 139.479 27.6056 139.252 28.0853C139.024 28.5657 138.707 28.9734 138.299 29.3086C137.891 29.6443 137.406 29.9047 136.844 30.0893C136.283 30.2743 135.662 30.3673 134.981 30.3673C133.723 30.3673 132.673 30.0666 131.834 29.4649C130.995 28.8632 130.479 27.9553 130.286 26.7403L132.362 26.5495Z" fill="#303133"/>
<path fill-rule="evenodd" clip-rule="evenodd" d="M144.945 23.5735H147.028C147.41 23.5735 147.76 23.5425 148.079 23.4804C148.397 23.4185 148.675 23.3144 148.912 23.1677C149.149 23.0213 149.334 22.8241 149.467 22.576C149.6 22.3282 149.667 22.0238 149.667 21.663C149.667 21.2912 149.6 20.9789 149.467 20.7253C149.334 20.4717 149.152 20.2717 148.92 20.125C148.689 19.9783 148.414 19.8742 148.096 19.8123C147.777 19.7505 147.433 19.7192 147.063 19.7192H144.945V23.5735ZM142.775 17.8774H147.323C148.168 17.8774 148.877 17.974 149.45 18.1674C150.023 18.3606 150.486 18.6275 150.839 18.9691C151.191 19.31 151.446 19.7106 151.602 20.1714C151.758 20.6315 151.837 21.129 151.837 21.6633C151.837 22.3004 151.73 22.8543 151.516 23.3261C151.302 23.7978 150.992 24.1872 150.587 24.4943C150.182 24.8012 149.69 25.0314 149.111 25.185C148.533 25.3386 147.879 25.4152 147.15 25.4152H144.945V30.1223H142.775V17.8774Z" fill="#303133"/>
<path fill-rule="evenodd" clip-rule="evenodd" d="M156.241 24.7844H160.327L159.654 22.8402C159.39 22.0788 159.177 21.4589 159.016 20.9816C158.855 20.504 158.712 20.0834 158.585 19.7195H158.051C157.982 19.9126 157.913 20.1061 157.844 20.2992C157.775 20.4927 157.697 20.7088 157.611 20.9473C157.525 21.1861 157.43 21.4589 157.327 21.7661C157.223 22.0726 157.097 22.431 156.948 22.8402L156.241 24.7844ZM152.327 29.5255L156.723 17.8774H159.982L164.327 29.5255V30.1223H162.189L160.948 26.6261H155.585L154.344 30.1223H152.327V29.5255Z" fill="#303133"/>
<path fill-rule="evenodd" clip-rule="evenodd" d="M177.306 26.8849C177.112 27.363 176.856 27.8128 176.542 28.2348C176.226 28.6569 175.846 29.0266 175.399 29.3423C174.953 29.6581 174.434 29.9078 173.844 30.0914C173.255 30.2751 172.599 30.3673 171.877 30.3673C170.961 30.3673 170.128 30.2077 169.378 29.8888C168.628 29.5707 167.987 29.1294 167.457 28.5664C166.927 28.0027 166.517 27.3317 166.229 26.5519C165.94 25.7726 165.796 24.9275 165.796 24.0168C165.796 23.1067 165.94 22.2616 166.229 21.4819C166.517 20.7026 166.929 20.0281 167.465 19.4589C168.001 18.8904 168.645 18.4432 169.395 18.1192C170.145 17.7946 170.984 17.6326 171.912 17.6326C173.263 17.6326 174.394 17.9459 175.305 18.5715C176.215 19.1971 176.86 20.0281 177.238 21.0637L175.056 21.4902C174.758 20.8646 174.342 20.372 173.81 20.0137C173.277 19.6553 172.633 19.4761 171.877 19.4761C171.27 19.4761 170.729 19.5923 170.254 19.8248C169.779 20.0573 169.378 20.3775 169.051 20.7858C168.725 21.1937 168.476 21.6756 168.304 22.2314C168.132 22.7868 168.046 23.3819 168.046 24.0168C168.046 24.663 168.135 25.2611 168.313 25.8111C168.49 26.3614 168.748 26.8371 169.086 27.2398C169.423 27.6422 169.833 27.9566 170.314 28.1832C170.795 28.4102 171.345 28.5237 171.963 28.5237C172.765 28.5237 173.426 28.3301 173.947 27.9432C174.469 27.5562 174.872 27.084 175.159 26.5261L177.306 26.8849Z" fill="#303133"/>
<mask id="mask0_100_477" style="mask-type:luminance" maskUnits="userSpaceOnUse" x="180" y="17" width="9" height="14">
<path d="M180.108 17.7292H188.236V30.0928H180.108V17.7292Z" fill="white"/>
</mask>
<g mask="url(#mask0_100_477)">
<path fill-rule="evenodd" clip-rule="evenodd" d="M180.108 17.7292H188.115V19.6232H182.226V22.8605H187.702V24.7201H182.226V28.1985H188.236V30.0928H180.108V17.7292Z" fill="#303133"/>
</g>
</svg>
