<svg width="162" height="28" viewBox="0 0 162 28" fill="none" xmlns="http://www.w3.org/2000/svg">
<g clip-path="url(#clip0_100_453)">
<path fill-rule="evenodd" clip-rule="evenodd" d="M43.3089 0.5L29.4727 27.5H16.5034L22.2713 16.3H22.0045C17.2702 22.5 10.1354 26.5667 0 27.5V16.4667C0 16.4667 6.50134 16.1 10.3021 12.0667H0V0.5H11.569V10.0333H11.8358L16.5701 0.5H25.3385V9.96667H25.6053L30.4729 0.5H43.3089Z" fill="#146EF5"/>
<path d="M118.624 24.5333H122.358V3.1333H118.624V24.5333Z" fill="#303133"/>
<path fill-rule="evenodd" clip-rule="evenodd" d="M98.0869 24.3C98.887 24.6333 99.7205 24.8 100.554 24.8C101.954 24.8 103.188 24.4666 104.255 23.8C105.355 23.1333 106.189 22.2 106.789 21C107.389 19.8 107.689 18.4666 107.689 16.9333C107.689 15.4 107.389 14.0666 106.755 12.8666C106.122 11.6666 105.288 10.7666 104.188 10.1C103.088 9.4333 101.821 9.09997 100.421 9.1333C99.5205 9.1333 98.687 9.29997 97.8535 9.66663C97.02 9.99997 96.3532 10.5 95.8197 11.1333C95.7864 11.1666 95.7531 11.2333 95.6864 11.2666V3.1333H91.9523V24.5H95.653V22.5C95.7531 22.6333 95.8531 22.7333 95.9531 22.8333C96.5532 23.4666 97.2534 23.9666 98.0869 24.3ZM101.888 20.8333C101.288 21.2 100.587 21.4 99.7872 21.4C99.0204 21.4 98.2869 21.2 97.6534 20.8333C97.02 20.4333 96.4865 19.9 96.1198 19.2333C95.7531 18.5666 95.553 17.8 95.553 16.9333C95.553 16.0666 95.7197 15.3 96.0865 14.6333C96.4532 13.9666 96.9866 13.4333 97.6201 13.0333C98.2536 12.6666 98.9871 12.4666 99.7539 12.4666C100.521 12.4666 101.221 12.6333 101.854 13C102.488 13.3666 102.955 13.9 103.288 14.5666C103.621 15.2333 103.788 16 103.788 16.9C103.788 17.7666 103.621 18.5333 103.288 19.2333C102.988 19.9333 102.521 20.4666 101.888 20.8333Z" fill="#303133"/>
<path d="M48.71 4.43359H52.9776L56.7783 18.3336L60.8459 4.43359H64.3799L68.7808 18.0669L72.4482 4.43359H76.349L70.5812 24.5336H66.9138L62.4462 11.2003L58.3453 24.5336H54.6446L48.71 4.43359Z" fill="#303133"/>
<path fill-rule="evenodd" clip-rule="evenodd" d="M82.617 24.8669C81.1167 24.8669 79.7831 24.5335 78.6162 23.9002C77.4159 23.2335 76.5157 22.3002 75.8156 21.1002C75.1488 19.9002 74.8154 18.5335 74.8154 17.0335C74.8154 15.5335 75.1488 14.2002 75.8489 13.0002C76.5491 11.8002 77.4826 10.8669 78.6495 10.2002C79.8497 9.53353 81.15 9.2002 82.617 9.2002C84.2506 9.2002 85.6843 9.56686 86.9179 10.3002C88.1515 11.0335 89.085 12.0669 89.6851 13.4002C90.3186 14.7335 90.5186 16.2669 90.3519 17.9669H78.6495C78.6828 18.6669 78.8495 19.2669 79.1496 19.8335C79.483 20.4669 79.9831 20.9335 80.5832 21.2669C81.2167 21.6002 81.8835 21.8002 82.6503 21.8002C83.2171 21.8002 83.7839 21.7002 84.284 21.5002C84.7841 21.3002 85.2175 21.0335 85.5509 20.7002C85.9177 20.3669 86.151 19.9669 86.3177 19.5669H90.2185C89.9852 20.6002 89.5184 21.5335 88.7849 22.3669C88.0848 23.1669 87.1846 23.8002 86.1177 24.2669C85.0841 24.6669 83.9172 24.9002 82.617 24.8669ZM79.1829 14.1669C78.9496 14.5335 78.8162 14.9669 78.7162 15.4002H86.4844C86.4178 14.8335 86.2511 14.3335 85.9843 13.9002C85.6509 13.3669 85.2175 12.9335 84.6507 12.6669C84.0839 12.3669 83.4505 12.2002 82.7503 12.2002C81.9835 12.2002 81.3167 12.3669 80.6832 12.7335C80.0498 13.0669 79.5497 13.5335 79.1829 14.1669Z" fill="#303133"/>
<path d="M110.456 9.46675C110.456 8.23341 110.723 7.16675 111.29 6.23342C111.856 5.26675 112.623 4.53341 113.623 4.00008C114.624 3.46675 115.824 3.20008 117.157 3.16675V6.50008C116.524 6.50008 115.991 6.63341 115.557 6.90008C115.124 7.13341 114.79 7.50008 114.557 7.96675C114.324 8.40008 114.224 8.90008 114.19 9.46675H117.091V12.6334H114.19V24.5334H110.456V12.6334H108.056V9.46675H110.456Z" fill="#303133"/>
<path fill-rule="evenodd" clip-rule="evenodd" d="M131.827 24.8334C130.293 24.8334 128.96 24.5001 127.76 23.8334C126.559 23.1668 125.626 22.2334 124.959 21.0334C124.292 19.8334 123.959 18.5001 123.959 16.9668C123.959 15.4334 124.292 14.1001 124.959 12.9001C125.626 11.7001 126.593 10.7668 127.76 10.1001C128.96 9.43343 130.327 9.1001 131.827 9.1001C133.361 9.1001 134.728 9.43343 135.928 10.1001C137.128 10.7668 138.095 11.7001 138.762 12.9001C139.429 14.1001 139.762 15.4668 139.795 16.9668C139.795 18.4668 139.429 19.8334 138.762 21.0334C138.095 22.2334 137.162 23.1334 135.961 23.8334C134.728 24.5001 133.361 24.8334 131.827 24.8334ZM131.827 21.4334C132.627 21.4334 133.327 21.2668 133.961 20.9001C134.594 20.5334 135.061 20.0001 135.394 19.3334C135.728 18.6668 135.895 17.9001 135.895 17.0334C135.895 16.1668 135.728 15.4001 135.394 14.7001C135.061 14.0334 134.594 13.5001 133.961 13.1334C133.327 12.7668 132.627 12.5668 131.827 12.5668C131.027 12.5668 130.327 12.7668 129.727 13.1334C129.127 13.5001 128.66 14.0001 128.293 14.7001C127.96 15.3668 127.793 16.1334 127.793 17.0334C127.793 17.9001 127.96 18.6668 128.293 19.3334C128.626 20.0001 129.127 20.5334 129.727 20.9001C130.327 21.2334 131.027 21.4334 131.827 21.4334Z" fill="#303133"/>
<path d="M143.796 9.4668H139.629L144.13 24.5001H147.764L150.731 14.9001L153.932 24.5001H157.499L162 9.4668H158.233L155.699 18.8335L152.865 9.4668H149.231L146.43 19.0335L143.796 9.4668Z" fill="#303133"/>
</g>
<defs>
<clipPath id="clip0_100_453">
<rect width="162" height="27" fill="white" transform="translate(0 0.5)"/>
</clipPath>
</defs>
</svg>
