<svg width="208" height="32" viewBox="0 0 208 32" fill="none" xmlns="http://www.w3.org/2000/svg">
<path d="M58.5153 8.61539L55.1067 21.8092L51.6981 8.61539H48.2651L49.0592 11.4462L46.066 22.2523L42.7918 8.61539H39.4932L44.1357 25.8462H47.752L50.5375 16.6277L53.1398 25.8462H56.7438L61.6307 8.61539H58.5153ZM93.1999 13.6123C92.4543 13.4385 91.6927 13.3437 90.9275 13.3292C86.7737 13.3292 84.5013 16.1231 84.5013 20.2215C84.5013 24.2954 86.7737 26.1538 89.4493 26.1538C90.8717 26.1071 92.2419 25.6024 93.3588 24.7138V25.8462H96.2054V8.61539H93.1999V13.6123ZM93.1999 22.3262C92.2226 23.2246 91.3063 23.7169 90.3411 23.7169C88.6796 23.7169 87.6167 22.6092 87.6167 20.0123C87.6167 17.2062 88.9361 15.7415 91.233 15.7415C91.9049 15.7415 92.5769 15.8769 93.1877 16.1231V22.3262H93.1999ZM78.8325 15.6308H78.7226V13.6123H75.9126V25.8462H78.9303V18.56C79.871 16.7631 81.0194 16.1723 82.9375 16.1723H83.2429V13.5385C82.9711 13.5082 82.6979 13.4918 82.4244 13.4892C80.7873 13.4892 79.6633 14.1292 78.8325 15.6431V15.6308ZM180.406 13.3046C176.252 13.3046 174.285 16.0123 174.285 19.7415C174.285 23.4585 176.24 26.1415 180.406 26.1415C184.572 26.1415 186.527 23.4585 186.527 19.7415C186.527 16.0123 184.536 13.3046 180.394 13.3046H180.406ZM180.406 23.6923C178.452 23.6923 177.401 22.4123 177.401 19.7415C177.401 17.0585 178.439 15.7785 180.406 15.7785C182.361 15.7785 183.387 17.0585 183.387 19.7415C183.387 22.4123 182.361 23.6923 180.394 23.6923H180.406ZM203.766 13.3046C202.471 13.3046 200.98 14.0185 199.636 14.9292L199.27 15.1631C198.647 13.7969 197.364 13.3169 195.959 13.3169C194.664 13.3169 193.185 13.9815 191.829 14.88V13.6123H188.971V25.8462H192V17.0708C192.937 16.3893 194.038 15.9728 195.189 15.8646C196.179 15.8646 196.802 16.4062 196.802 18.1292V25.8462H199.807V17.1077C200.931 16.3692 202.128 15.8769 202.984 15.8769C203.985 15.8769 204.596 16.4062 204.596 18.1415V25.8462H207.602V17.4031C207.602 15.04 206.209 13.3169 203.753 13.3169L203.766 13.3046ZM67.3728 13.3046C63.2189 13.3046 61.2642 16.0123 61.2642 19.7415C61.2642 23.4585 63.2189 26.1415 67.3728 26.1415C71.5266 26.1415 73.5058 23.4585 73.5058 19.7415C73.5058 16.0123 71.5022 13.3046 67.3606 13.3046H67.3728ZM67.3728 23.6923C65.418 23.6923 64.3674 22.4123 64.3674 19.7415C64.3674 17.0585 65.418 15.7785 67.385 15.7785C69.3398 15.7785 70.366 17.0585 70.366 19.7415C70.366 22.4123 69.3275 23.6923 67.3606 23.6923H67.3728ZM116.62 15.6185H116.523V13.6123H113.7V25.8462H116.706V18.56C117.647 16.7631 118.795 16.1723 120.713 16.1723H121.019V13.5385C120.747 13.5082 120.473 13.4918 120.2 13.4892C118.575 13.4892 117.451 14.1292 116.608 15.6431H116.62V15.6185ZM105.527 8.61539H99.9316V25.8462H103.157V19.8523H105.515C109.168 19.8523 111.819 17.8708 111.819 14.1662C111.819 10.4738 109.168 8.61539 105.515 8.61539H105.527ZM105.552 17.3292H103.157V11.1631H105.539C107.494 11.1631 108.447 12.2462 108.447 14.1662C108.447 16.0985 107.555 17.3292 105.539 17.3292H105.552ZM149.558 17.0462C149.558 16.1231 150.56 15.7662 151.635 15.7662C152.771 15.7785 153.907 15.9631 154.995 16.2954V13.7846C153.823 13.4511 152.608 13.2935 151.39 13.3169C148.483 13.3169 146.442 14.7077 146.442 16.9723C146.442 21.3662 152.453 20.2338 152.453 22.3754C152.453 23.4215 151.513 23.7046 150.132 23.7046C149.155 23.7046 147.603 23.3354 146.479 22.9292V25.4277C147.607 25.8819 148.807 26.1278 150.022 26.1538C152.857 26.1538 155.557 25.3046 155.557 22.2523C155.593 18.0062 149.57 19.1015 149.57 17.0462H149.558ZM128.178 13.3169C124.293 13.3169 122.277 16.3569 122.277 19.6677C122.277 24.2215 124.647 26.1538 128.508 26.1538C130.021 26.1571 131.526 25.9204 132.967 25.4523V22.9292C131.709 23.3969 130.56 23.68 129.338 23.68C127.09 23.68 125.588 23.0646 125.514 20.3938H133.285C133.358 19.7908 133.395 19.1877 133.382 18.5969C133.382 16.0123 132.026 13.3169 128.166 13.3169H128.178ZM125.539 18.3877C125.722 16.6892 126.638 15.6062 128.141 15.6062C129.754 15.6062 130.242 16.8985 130.242 18.3877H125.539ZM138.611 17.0462C138.611 16.1231 139.601 15.7662 140.676 15.7662C141.812 15.7785 142.948 15.9631 144.036 16.2954V13.7846C142.868 13.4523 141.657 13.2947 140.444 13.3169C137.536 13.3169 135.484 14.7077 135.484 16.9723C135.484 21.3662 141.507 20.2338 141.507 22.3754C141.507 23.4215 140.554 23.7046 139.185 23.7046C138.208 23.7046 136.657 23.3354 135.52 22.9292V25.4277C136.648 25.8821 137.849 26.1281 139.063 26.1538C141.898 26.1538 144.61 25.3046 144.61 22.2523C144.634 18.0062 138.611 19.1015 138.611 17.0462ZM165.452 19.6308C165.452 16.7631 167.004 15.7908 168.849 15.7908C169.997 15.8277 171.146 16.0615 172.221 16.4923V13.9077C171.124 13.5095 169.966 13.3096 168.8 13.3169C164.793 13.3169 162.313 15.7785 162.313 19.7785C162.313 23.5569 164.096 26.1538 168.617 26.1538C170.046 26.1538 171.158 25.8708 172.38 25.4523V22.9415C170.999 23.4708 169.936 23.68 168.995 23.68C167.004 23.68 165.452 22.7569 165.452 19.6185V19.6308ZM157.585 25.8462H160.602V22.7077H157.585V25.8462ZM2.49949 16C2.49949 21.5015 5.67596 26.24 10.2696 28.4923L3.69677 10.3508C2.90751 12.128 2.49953 14.053 2.49949 16ZM16.2805 29.8831C17.8809 29.8831 19.4203 29.6 20.8619 29.0954L20.7642 28.9108L16.5248 17.2185L12.3954 29.3169C13.6171 29.6862 14.9244 29.8831 16.2805 29.8831ZM18.1742 9.48923L23.1588 24.4185L24.5393 19.7908C25.1257 17.8708 25.5778 16.4923 25.5778 15.2985C25.5778 13.5754 24.9669 12.3938 24.4538 11.4831C23.7452 10.3262 23.0977 9.35385 23.0977 8.22154C23.0977 6.94154 24.0506 5.76 25.4189 5.76H25.59C23.0507 3.41158 19.7275 2.11114 16.2805 2.11692C13.9981 2.11649 11.7514 2.68766 9.74247 3.77904C7.73357 4.87043 6.02549 6.44779 4.77189 8.36923L5.65153 8.39385C7.09316 8.39385 9.31668 8.20923 9.31668 8.20923C10.0742 8.17231 10.1597 9.26769 9.41442 9.35385C9.41442 9.35385 8.66917 9.45231 7.82619 9.48923L12.8597 24.5292L15.8773 15.4215L13.7271 9.48923C13.2455 9.46246 12.7647 9.42141 12.2855 9.36615C11.5402 9.31692 11.6257 8.17231 12.371 8.20923C12.371 8.20923 14.6434 8.39385 15.9995 8.39385C17.4411 8.39385 19.6646 8.20923 19.6646 8.20923C20.4099 8.17231 20.5076 9.26769 19.7624 9.35385C19.7624 9.35385 19.0171 9.44 18.1742 9.48923ZM23.2076 28C25.2924 26.7788 27.0226 25.0279 28.2253 22.9221C29.4281 20.8163 30.0612 18.4295 30.0615 16C30.0615 13.5877 29.4506 11.3231 28.3755 9.34154C28.5938 11.5216 28.2662 13.722 27.4226 15.7415L23.2076 28ZM16.2805 32C12.0682 32 8.02849 30.3143 5.04997 27.3137C2.07145 24.3131 0.398132 20.2435 0.398132 16C0.398132 11.7565 2.07145 7.68687 5.04997 4.68629C8.02849 1.68571 12.0682 0 16.2805 0C20.4927 0 24.5325 1.68571 27.511 4.68629C30.4895 7.68687 32.1628 11.7565 32.1628 16C32.1628 20.2435 30.4895 24.3131 27.511 27.3137C24.5325 30.3143 20.4927 32 16.2805 32Z" fill="#303133"/>
</svg>
